<svg width="16" height="13" viewBox="0 0 16 13" fill="none" xmlns="http://www.w3.org/2000/svg">
<path d="M15.3651 7.05991L10.3851 12.0599C10.2251 12.2199 10.0251 12.2999 9.82509 12.2999C9.62509 12.2999 9.42509 12.2199 9.26509 12.0599C8.94509 11.7399 8.94509 11.2399 9.26509 10.9199L12.8851 7.27991H1.20509C0.76509 7.27991 0.40509 6.91991 0.40509 6.47991C0.40509 6.03991 0.76509 5.67991 1.20509 5.67991H12.8851L9.26509 2.03991C8.94509 1.71991 8.94509 1.21991 9.26509 0.899912C9.58509 0.579912 10.0851 0.579912 10.4051 0.899912L15.3851 5.89991C15.6851 6.23991 15.6851 6.75991 15.3651 7.05991Z" fill="#06942A"/>
</svg>
