<svg width="18" height="18" viewBox="0 0 18 18" fill="none" xmlns="http://www.w3.org/2000/svg">
<path d="M13.0653 1H5.06531C2.85617 1 1.06531 2.79086 1.06531 5V13C1.06531 15.2091 2.85617 17 5.06531 17H13.0653C15.2744 17 17.0653 15.2091 17.0653 13V5C17.0653 2.79086 15.2744 1 13.0653 1Z" stroke="#06942A" stroke-width="1.2" stroke-linecap="round" stroke-linejoin="round"/>
<path d="M12.2653 8.49575C12.364 9.16155 12.2503 9.84153 11.9403 10.439C11.6303 11.0364 11.1398 11.5209 10.5386 11.8235C9.93738 12.1261 9.25605 12.2314 8.59152 12.1245C7.92699 12.0176 7.3131 11.7038 6.83716 11.2279C6.36123 10.7519 6.04748 10.1381 5.94055 9.47352C5.83362 8.809 5.93895 8.12767 6.24155 7.52645C6.54416 6.92524 7.02864 6.43475 7.62608 6.12475C8.22352 5.81475 8.9035 5.70102 9.56929 5.79975C10.2484 5.90046 10.8772 6.21692 11.3626 6.7024C11.8481 7.18787 12.1646 7.81661 12.2653 8.49575Z" stroke="#06942A" stroke-width="1.2" stroke-linecap="round" stroke-linejoin="round"/>
<path d="M13.4653 4.6001H13.4743" stroke="#06942A" stroke-width="1.2" stroke-linecap="round" stroke-linejoin="round"/>
</svg>
