<svg width="14" height="13" viewBox="0 0 14 13" fill="none" xmlns="http://www.w3.org/2000/svg">
<path d="M9.46532 4.6001C10.4201 4.6001 11.3358 4.97938 12.0109 5.65451C12.686 6.32964 13.0653 7.24531 13.0653 8.20009V12.4001H10.6653V8.20009C10.6653 7.88183 10.5389 7.57661 10.3138 7.35156C10.0888 7.12652 9.78358 7.00009 9.46532 7.00009C9.14706 7.00009 8.84183 7.12652 8.61679 7.35156C8.39175 7.57661 8.26532 7.88183 8.26532 8.20009V12.4001H5.86533V8.20009C5.86533 7.24531 6.24461 6.32964 6.91974 5.65451C7.59487 4.97938 8.51054 4.6001 9.46532 4.6001V4.6001Z" stroke="#06942A" stroke-width="1.2" stroke-linecap="round" stroke-linejoin="round"/>
<path d="M3.4653 5.19971H1.06531V12.3997H3.4653V5.19971Z" stroke="#06942A" stroke-width="1.2" stroke-linecap="round" stroke-linejoin="round"/>
<path d="M2.2653 3.39999C2.92804 3.39999 3.4653 2.86274 3.4653 2.2C3.4653 1.53726 2.92804 1 2.2653 1C1.60256 1 1.06531 1.53726 1.06531 2.2C1.06531 2.86274 1.60256 3.39999 2.2653 3.39999Z" stroke="#06942A" stroke-width="1.2" stroke-linecap="round" stroke-linejoin="round"/>
</svg>
