<svg width="28" height="17" viewBox="0 0 28 17" fill="none" xmlns="http://www.w3.org/2000/svg">
<path d="M27.6553 9.34708L20.5779 16.6495C20.3505 16.8832 20.0663 17 19.782 17C19.4978 17 19.2136 16.8832 18.9862 16.6495C18.5314 16.1821 18.5314 15.4519 18.9862 14.9845L24.1308 9.66838H1.13693C0.511619 9.66838 0 9.14261 0 8.5C0 7.85739 0.511619 7.33161 1.13693 7.33161H24.1308L18.9862 2.01547C18.5314 1.54811 18.5314 0.817869 18.9862 0.350515C19.441 -0.116838 20.1515 -0.116838 20.6063 0.350515L27.6837 7.65292C28.1101 8.14948 28.11 8.90893 27.6553 9.34708Z" fill="#06942A"/>
</svg>
