<svg width="28" height="17" viewBox="0 0 28 17" fill="none" xmlns="http://www.w3.org/2000/svg">
<path d="M0.344725 7.65292L7.4221 0.350517C7.64949 0.11684 7.93373 0 8.21797 0C8.5022 0 8.78643 0.11684 9.01381 0.350517C9.46859 0.817873 9.46859 1.54812 9.01381 2.01547L3.86919 7.33162L26.8631 7.33162C27.4884 7.33162 28 7.85739 28 8.5C28 9.14261 27.4884 9.66839 26.8631 9.66839L3.86919 9.66839L9.01381 14.9845C9.46859 15.4519 9.46859 16.1821 9.01381 16.6495C8.55904 17.1168 7.84846 17.1168 7.39368 16.6495L0.31629 9.34708C-0.11006 8.85052 -0.110048 8.09107 0.344725 7.65292Z" fill="#E5E5E5"/>
</svg>
