<svg width="18" height="19" viewBox="0 0 18 19" fill="none" xmlns="http://www.w3.org/2000/svg">
<path d="M0.260009 6.8883C0.260009 10.5266 3.08001 13.484 6.52001 13.484C7.98001 13.484 9.30002 12.9521 10.38 12.0798L16.32 18.3351C16.68 18.6968 17.24 18.6968 17.58 18.3351C17.76 18.1436 17.84 17.9096 17.84 17.6755C17.84 17.4202 17.76 17.1862 17.58 16.9947L11.62 10.7394C12.36 9.65425 12.78 8.33511 12.78 6.90957C12.78 3.27128 9.96001 0.313831 6.52001 0.313831C3.06001 0.292555 0.260009 3.25001 0.260009 6.8883ZM11.2 6.8883C11.2 9.59043 9.10001 11.7819 6.52001 11.7819C3.94001 11.7819 1.84001 9.59043 1.84001 6.8883C1.84001 4.18618 3.94001 1.99469 6.52001 1.99469C9.10001 1.99469 11.2 4.18617 11.2 6.8883ZM6.60001 3.59043C6.94001 3.63298 7.20001 3.95213 7.20001 4.31383C7.20001 4.35638 7.20001 4.37766 7.20001 4.42021C7.14001 4.82447 6.80001 5.10107 6.42001 5.05851C5.38001 4.90958 4.84001 6.14362 4.82001 6.20745C4.66001 6.56915 4.24001 6.73937 3.90001 6.56915C3.56001 6.39894 3.40001 5.97341 3.54001 5.59043C3.56001 5.50532 4.52001 3.29256 6.60001 3.59043ZM8.12001 5.14362C8.26001 4.99468 8.48002 4.8883 8.68002 4.8883C8.90002 4.8883 9.10001 4.97341 9.24001 5.14362C9.38001 5.29256 9.48002 5.5266 9.48002 5.73936C9.48002 5.95213 9.40001 6.18617 9.24001 6.33511C9.10001 6.48405 8.88002 6.59043 8.68002 6.59043C8.48002 6.59043 8.26001 6.50532 8.12001 6.33511C7.98001 6.18617 7.88002 5.95213 7.88002 5.73936C7.88002 5.5266 7.96001 5.31383 8.12001 5.14362Z" fill="white"/>
</svg>
