<svg width="16" height="14" viewBox="0 0 16 14" fill="none" xmlns="http://www.w3.org/2000/svg">
<path d="M15.3986 0.999868C14.7602 1.45019 14.0534 1.79461 13.3053 2.01987C12.9038 1.55821 12.3702 1.231 11.7767 1.08249C11.1831 0.933975 10.5583 0.971332 9.9867 1.1895C9.41509 1.40768 8.92427 1.79614 8.58063 2.30235C8.23699 2.80856 8.05711 3.40809 8.06531 4.01987V4.68653C6.89373 4.71691 5.73283 4.45708 4.68599 3.93017C3.63914 3.40325 2.73886 2.62562 2.06531 1.66653C2.06531 1.66653 -0.601354 7.66653 5.39865 10.3332C4.02566 11.2652 2.39008 11.7325 0.731979 11.6665C6.73198 14.9999 14.0653 11.6665 14.0653 3.99987C14.0647 3.81417 14.0468 3.62893 14.012 3.44653C14.6924 2.77553 15.1725 1.92834 15.3986 0.999868V0.999868Z" stroke="#06942A" stroke-width="1.2" stroke-linecap="round" stroke-linejoin="round"/>
</svg>
