<svg width="36" height="48" viewBox="0 0 36 48" fill="none" xmlns="http://www.w3.org/2000/svg">
<path d="M0 0H33.2449V47.0204H0V0Z" fill="#76C48A"/>
<path d="M16.6225 0H33.2449V47.0204H16.6225V0Z" fill="#06942A"/>
<path d="M8.35715 8.35718V38.6633H36V8.35718H8.35715Z" fill="#575F64"/>
<path d="M22.1326 8.35718H36V38.6633H22.1326V8.35718Z" fill="#474F54"/>
<path d="M11.1122 22.1327H16.6224V27.6429H11.1122V22.1327Z" fill="white"/>
<path d="M11.1122 30.3979H16.6224V35.9082H11.1122V30.3979Z" fill="white"/>
<path d="M27.6429 22.1327H33.2449V35.9082H27.6429V22.1327Z" fill="#76C48A"/>
<path d="M11.1122 11.1123H33.2449V19.3776H11.1122V11.1123Z" fill="white"/>
<path d="M22.1326 11.1123H33.2449V19.3776H22.1326V11.1123Z" fill="white"/>
<path d="M19.3775 30.3979H24.8878V35.9082H19.3775V30.3979Z" fill="white"/>
<path d="M19.3775 22.1327H24.8878V27.6429H19.3775V22.1327Z" fill="white"/>
<path d="M22.1326 22.1327H24.8877V27.6429H22.1326V22.1327Z" fill="white"/>
<path d="M22.1326 30.3979H24.8877V35.9082H22.1326V30.3979Z" fill="white"/>
</svg>
