<svg width="32" height="36" viewBox="0 0 32 36" fill="none" xmlns="http://www.w3.org/2000/svg">
<path d="M17.1491 0.000703125C17.128 0 17.107 0 17.0859 0C14.9948 0 12.9367 0.466875 11.1388 1.34859C8.76648 2.46727 6.75765 4.22016 5.3282 6.41813C3.86008 8.67797 3.08312 11.302 3.08312 14.0062V16.2443L0.309998 21.304C-0.0872676 22.0577 -0.10344 22.8741 0.265701 23.4872C0.599685 24.042 1.2114 24.3598 1.94406 24.3598H3.08312V29.2774C3.08312 30.9741 4.45633 32.3543 6.14383 32.3543L6.17125 32.3522L9.93015 31.7777V35.4016C9.93015 35.7321 10.1973 36 10.5278 36H21.2983C24.1902 36 26.5436 33.6452 26.5436 30.7505V24.2487C29.3814 21.6021 31.0077 17.8741 31.0077 14.0055C30.9775 6.30422 24.7668 0.0344531 17.1491 0.000703125Z" fill="#76C48A"/>
<path d="M31.0078 14.0056C31.0078 17.8742 29.3814 21.6021 26.5436 24.2487V30.7505C26.5436 33.6453 24.1903 36 21.2983 36H17.1492V0.000732422C24.7668 0.0344824 30.9775 6.30425 31.0078 14.0056Z" fill="#06942A"/>
<path d="M21.5247 14.1405C21.5247 15.7619 20.643 17.1773 19.3323 17.9332L19.1116 19.7775L17.1491 21.1795L17.1428 21.1837L15.186 19.7775L14.9652 17.9332C13.6307 17.1632 12.7405 15.7106 12.7729 14.0533C12.82 11.6564 14.7536 9.76565 17.1491 9.76636H17.1723C19.5784 9.77901 21.5247 11.733 21.5247 14.1405Z" fill="#F0F9FB"/>
<path d="M18.1975 5.39917V6.27667C18.1975 6.85745 17.7292 7.32784 17.1492 7.33136H17.1428C16.5606 7.33136 16.0881 6.85956 16.0881 6.27667V5.39917C16.0881 4.81698 16.5606 4.34448 17.1428 4.34448H17.1492C17.7292 4.348 18.1975 4.81909 18.1975 5.39917Z" fill="#F0F9FB"/>
<path d="M9.52036 12.7827H8.64258C8.06011 12.7827 7.58789 13.2549 7.58789 13.8374C7.58789 14.4199 8.06011 14.8921 8.64258 14.8921H9.52036C10.1028 14.8921 10.575 14.4199 10.575 13.8374C10.575 13.2549 10.1028 12.7827 9.52036 12.7827Z" fill="#F0F9FB"/>
<path d="M25.6332 12.7827H24.7554C24.1729 12.7827 23.7007 13.2549 23.7007 13.8374C23.7007 14.4199 24.1729 14.8921 24.7554 14.8921H25.6332C26.2156 14.8921 26.6878 14.4199 26.6878 13.8374C26.6878 13.2549 26.2156 12.7827 25.6332 12.7827Z" fill="#D7F0F5"/>
<path d="M11.6016 7.29778C11.1896 6.88596 10.5218 6.8861 10.1101 7.29813C9.69836 7.71009 9.6985 8.37785 10.1105 8.78967L10.7312 9.41011C10.9371 9.61598 11.207 9.71885 11.4768 9.71885C11.7468 9.71885 12.0168 9.61584 12.2227 9.40976C12.6345 8.9978 12.6343 8.33004 12.2224 7.91822L11.6016 7.29778Z" fill="#F0F9FB"/>
<path d="M24.1758 7.29832C23.7641 6.88636 23.0963 6.88622 22.6843 7.29797L22.0636 7.91841C21.6516 8.33016 21.6515 8.99799 22.0632 9.40995C22.2692 9.61603 22.5392 9.71904 22.8092 9.71904C23.079 9.71904 23.3489 9.6161 23.5548 9.4103L24.1755 8.78986C24.5874 8.37804 24.5876 7.71029 24.1758 7.29832Z" fill="#D7F0F5"/>
<path d="M17.1492 7.33136V4.34448C17.7292 4.348 18.1975 4.81909 18.1975 5.39917V6.27667C18.1975 6.85745 17.7292 7.32784 17.1492 7.33136Z" fill="#D7F0F5"/>
<path d="M21.5247 14.1405C21.5247 15.7619 20.643 17.1773 19.3324 17.9332L19.1116 19.7775L17.1492 21.1795V9.76636H17.1724C19.5785 9.77901 21.5247 11.733 21.5247 14.1405Z" fill="#D7F0F5"/>
<path d="M19.1115 19.7773L18.9287 21.3024C18.8746 21.7531 18.6566 22.1483 18.3388 22.4302C18.0203 22.7122 17.6026 22.8816 17.1491 22.8816H17.1484C16.2407 22.8816 15.4757 22.2038 15.3681 21.3024L15.186 19.7773H19.1115Z" fill="#596C76"/>
<path d="M19.1116 19.7773L18.9288 21.3024C18.8746 21.7531 18.6567 22.1483 18.3389 22.4302C18.0203 22.7122 17.6027 22.8816 17.1492 22.8816V19.7773H19.1116Z" fill="#465A61"/>
</svg>
