<svg width="43" height="29" viewBox="0 0 43 29" fill="none" xmlns="http://www.w3.org/2000/svg">
<path d="M39.4166 0.166748H3.58331C2.5938 0.166748 1.79164 0.968904 1.79164 1.95841V27.0417C1.79164 28.0313 2.5938 28.8334 3.58331 28.8334H39.4166C40.4062 28.8334 41.2083 28.0313 41.2083 27.0417V1.95841C41.2083 0.968904 40.4062 0.166748 39.4166 0.166748Z" fill="#76C48A"/>
<path d="M7.16664 25.2501C6.69146 25.2501 6.23574 25.0613 5.89974 24.7253C5.56374 24.3893 5.37497 23.9336 5.37497 23.4584V0.166748H3.58331C3.10813 0.166748 2.65241 0.355513 2.31641 0.691515C1.98041 1.02752 1.79164 1.48324 1.79164 1.95841V27.0417C1.79164 27.5169 1.98041 27.9726 2.31641 28.3087C2.65241 28.6447 3.10813 28.8334 3.58331 28.8334H39.4166C39.8918 28.8334 40.3475 28.6447 40.6835 28.3087C41.0195 27.9726 41.2083 27.5169 41.2083 27.0417V25.2501H7.16664Z" fill="#76C48A"/>
<path d="M20 3H41.5V27C41.5 28.1046 40.6046 29 39.5 29H20V3Z" fill="#06942A"/>
<path d="M0 0H43V3.58333H0V0Z" fill="#465A61"/>
<path d="M0 0H20V3.58H0V0Z" fill="#596C76"/>
<path d="M23.2916 9.125H37.625V12.7083H23.2916V9.125Z" fill="white"/>
<path d="M23.2917 14.5H34.0417V18.0833H23.2917V14.5Z" fill="white"/>
<path d="M23.2917 19.875H30.4583V23.4583H23.2917V19.875Z" fill="white"/>
<path d="M12.5417 9.125C11.1242 9.125 9.73864 9.54532 8.56008 10.3328C7.38153 11.1203 6.46296 12.2396 5.92053 13.5491C5.37811 14.8586 5.23618 16.2996 5.51271 17.6898C5.78924 19.08 6.47179 20.357 7.47407 21.3593C8.47635 22.3615 9.75333 23.0441 11.1435 23.3206C12.5337 23.5972 13.9747 23.4552 15.2842 22.9128C16.5938 22.3704 17.7131 21.4518 18.5005 20.2733C19.288 19.0947 19.7083 17.7091 19.7083 16.2917H12.5417V9.125Z" fill="#E1EBF0"/>
</svg>
