<svg width="42" height="35" viewBox="0 0 42 35" fill="none" xmlns="http://www.w3.org/2000/svg">
<path d="M39.2857 32.1429H23.5714C22.3929 32.1429 20.7143 33.3929 20.7143 35V2.14286C20.7143 0.964286 21.6786 0 22.8571 0H39.2857C40.4643 0 41.4286 0.964286 41.4286 2.14286V30C41.4286 31.1786 40.4643 32.1429 39.2857 32.1429Z" fill="#06942A"/>
<path d="M2.14286 32.1429H17.8571C19.0357 32.1429 20.7143 33.3929 20.7143 35V2.14286C20.7143 0.964286 19.75 0 18.5714 0H2.14286C0.964286 0 0 0.964286 0 2.14286V30C0 31.1786 0.964286 32.1429 2.14286 32.1429Z" fill="#76C48A"/>
</svg>
