<svg width="36" height="36" viewBox="0 0 36 36" fill="none" xmlns="http://www.w3.org/2000/svg">
<path d="M24.7712 2.10938L22.6618 0H18H13.3382L11.2288 2.10938L9.75662 4.85592L12.7266 3.6071L14.2243 2.10938H18H21.7757L23.2734 3.6071L26.0697 2.92022L24.7712 2.10938Z" fill="#76C48A"/>
<path d="M23.2734 3.6071L26.0697 2.92022L24.7712 2.10938L22.6618 0H18V2.10938H21.7757L23.2734 3.6071Z" fill="#06942A"/>
<path d="M6.39844 2.10938V8.4375H12.7266V3.6071L11.2288 2.10938H6.39844Z" fill="#465A61"/>
<path d="M24.7712 2.10938L23.2734 3.6071V8.4375H29.6016V2.10938H24.7712Z" fill="#3B4A51"/>
<path d="M33.8906 13.7812V33.8906H29.6016V36H23.2734V33.8906H12.7266V36H6.39844V33.8906H2.10938V13.7812H33.8906Z" fill="#76C48A"/>
<path d="M33.8906 13.7812V33.8906H29.6016V36H23.2734V33.8906H18V13.7812H33.8906Z" fill="#06942A"/>
<path d="M21.1641 21.1641V19.0547H14.8359V21.1641H12.7266V27.4922H14.8359V29.6016H21.1641V27.4922H23.2734V21.1641H21.1641Z" fill="#F0F9FB"/>
<path d="M21.1641 21.1641H23.2734V27.4922H21.1641V29.6016H18V19.0547H21.1641V21.1641Z" fill="#D7F0F5"/>
<path d="M0 6.32812V14.8359H36V6.32812H0Z" fill="#596C76"/>
<path d="M18 6.32812H36V14.8359H18V6.32812Z" fill="#465A61"/>
</svg>
