<svg width="33" height="30" viewBox="0 0 33 30" fill="none" xmlns="http://www.w3.org/2000/svg">
<path d="M0 18.1858V20.4828C0 21.7396 1.01903 22.7586 2.27586 22.7586H30.7241C31.981 22.7586 33 21.7396 33 20.4828V18.1858H0Z" fill="#06942A"/>
<path d="M30.7241 0H29.0172V14.7931C29.0172 15.4215 28.5077 15.931 27.8793 15.931H5.12069C4.49227 15.931 3.98276 15.4215 3.98276 14.7931V0H2.27586C1.01903 0 0 1.01903 0 2.27586V18.1858H33V2.27586C33 1.01903 31.981 0 30.7241 0Z" fill="#76C48A"/>
<path d="M10.8103 26.1723H22.1896L21.0517 22.7585H11.9483L10.8103 26.1723Z" fill="#596C76"/>
<path d="M8.53447 26.1721C7.27763 26.1721 6.25861 27.1911 6.25861 28.448V29.5859H26.7414V28.448C26.7414 27.1911 25.7223 26.1721 24.4655 26.1721H8.53447Z" fill="#465A61"/>
<path d="M29.0172 0V14.7931C29.0153 15.4207 28.5069 15.9291 27.8793 15.931H5.12069C4.4931 15.9291 3.9847 15.4207 3.98276 14.7931V0H29.0172Z" fill="#76C48A"/>
<path d="M3.98276 0C2.72592 0 1.7069 1.01903 1.7069 2.27586V18.1841H0V2.27586C0 1.01903 1.01903 0 2.27586 0H3.98276Z" fill="#06942A"/>
<path d="M3.98276 22.7588H2.27586C1.01903 22.7588 0 21.7398 0 20.483V18.1843H1.7069V20.483C1.7069 21.7398 2.72592 22.7588 3.98276 22.7588Z" fill="#76C48A"/>
<path d="M13.6552 19.9141H14.7931V21.052H13.6552V19.9141Z" fill="#F1F2F2"/>
<path d="M15.9311 19.9138H17.069V21.0517H15.9311V19.9138Z" fill="#F1F2F2"/>
<path d="M18.2069 19.9138H19.3448V21.0517H18.2069V19.9138Z" fill="#F1F2F2"/>
</svg>
