<svg width="28" height="50" viewBox="0 0 28 50" fill="none" xmlns="http://www.w3.org/2000/svg">
<path d="M18.7673 8.47447C18.7673 11.0892 16.6378 13.2169 14.021 13.2169C11.4042 13.2169 9.27472 11.0892 9.27472 8.47447C9.27472 6.15325 12.6713 1.58608 13.3521 0.694789C13.5113 0.486213 13.7586 0.363647 14.021 0.363647C14.2835 0.363647 14.5308 0.486213 14.69 0.694789C15.3707 1.58608 18.7673 6.15325 18.7673 8.47447Z" fill="#465A61"/>
<path d="M3.06226 18.0497H24.9795V47.4783H3.06226V18.0497Z" fill="#06942A" fill-opacity="0.5"/>
<path d="M14.0209 18.0497H24.9796V47.4783H14.0209V18.0497Z" fill="#06942A"/>
<path d="M27.1318 18.0496C27.1318 18.9398 26.4101 19.6623 25.5184 19.6623H2.52247C1.63193 19.6623 0.909119 18.9398 0.909119 18.0496C0.909119 17.1583 1.63182 16.4369 2.52247 16.4369H25.5184C26.41 16.4369 27.1318 17.1583 27.1318 18.0496Z" fill="#596C76"/>
<path d="M27.1318 32.7639C27.1318 33.6542 26.4101 34.3767 25.5184 34.3767H2.52247C1.63193 34.3767 0.909119 33.6542 0.909119 32.7639C0.909119 31.8727 1.63182 31.1512 2.52247 31.1512H25.5184C26.41 31.1512 27.1318 31.8727 27.1318 32.7639Z" fill="#596C76"/>
<path d="M27.1318 47.4782C27.1318 48.3684 26.4101 49.0909 25.5184 49.0909H2.52247C1.63182 49.0909 0.909119 48.3684 0.909119 47.4782C0.909119 46.588 1.63182 45.8655 2.52247 45.8655H25.5184C26.41 45.8655 27.1318 46.588 27.1318 47.4782Z" fill="#596C76"/>
<path d="M18.408 25.4358C18.408 26.326 17.6852 27.0485 16.7947 27.0485H11.2472C10.3567 27.0485 9.63385 26.326 9.63385 25.4358C9.63385 24.5456 10.3566 23.8231 11.2472 23.8231H16.7948C17.6853 23.8231 18.408 24.5456 18.408 25.4358Z" fill="white"/>
<path d="M18.408 40.1125C18.408 41.0027 17.6852 41.7252 16.7947 41.7252H11.2472C10.3567 41.7252 9.63385 41.0027 9.63385 40.1125C9.63385 39.2212 10.3566 38.4998 11.2472 38.4998H16.7948C17.6853 38.4998 18.408 39.2212 18.408 40.1125Z" fill="white"/>
<path d="M16.7948 41.7252H14.0209V38.4998H16.7948C17.6853 38.4998 18.4081 39.2212 18.4081 40.1125C18.408 41.0027 17.6853 41.7252 16.7948 41.7252Z" fill="#F3EEE9"/>
<path d="M16.7948 27.0485H14.0209V23.8231H16.7948C17.6853 23.8231 18.4081 24.5456 18.4081 25.4358C18.4081 26.326 17.6853 27.0485 16.7948 27.0485Z" fill="#F3EEE9"/>
<path d="M27.1318 47.4782C27.1318 48.3684 26.4101 49.0909 25.5184 49.0909H14.0209V45.8655H25.5184C26.41 45.8655 27.1318 46.588 27.1318 47.4782Z" fill="#465A61"/>
<path d="M27.1318 32.7639C27.1318 33.6542 26.4101 34.3767 25.5184 34.3767H14.0209V31.1512H25.5184C26.41 31.1512 27.1318 31.8727 27.1318 32.7639Z" fill="#465A61"/>
<path d="M25.5184 19.6623H14.0209V16.4369H25.5184C26.41 16.4369 27.1318 17.1583 27.1318 18.0496C27.1318 18.9398 26.41 19.6623 25.5184 19.6623Z" fill="#465A61"/>
</svg>
