<svg width="35" height="41" viewBox="0 0 35 41" fill="none" xmlns="http://www.w3.org/2000/svg">
<path d="M32.9737 27.2995C31.8749 30.2774 30.2132 32.8667 28.034 34.9948C25.5535 37.4169 22.3055 39.3416 18.38 40.7145C18.2512 40.7594 18.1168 40.7962 17.9817 40.8234C17.8033 40.8586 17.6218 40.8776 17.4419 40.8801H17.4066C17.2148 40.8801 17.0221 40.8608 16.8309 40.8234C16.6958 40.7962 16.5633 40.7594 16.4351 40.7155C12.5049 39.3447 9.25286 37.421 6.76989 34.9988C4.58977 32.8708 2.92833 30.283 1.8311 27.3051C-0.164066 21.8907 -0.0505376 15.9261 0.0408464 11.1329L0.0424058 11.0593C0.0608074 10.6635 0.0726592 10.2478 0.079209 9.78867C0.112581 7.53464 1.90471 5.66984 4.15905 5.54415C8.85925 5.28185 12.4953 3.74891 15.602 0.720758L15.6292 0.695807C16.145 0.222668 16.795 -0.00937859 17.4419 0.000290066C18.0656 0.00839925 18.6869 0.240134 19.1844 0.695807L19.2109 0.720758C22.3183 3.74891 25.9543 5.28185 30.6545 5.54415C32.9088 5.66984 34.701 7.53464 34.7343 9.78867C34.7409 10.2509 34.7527 10.666 34.7711 11.0593L34.7721 11.0905C34.8632 15.8927 34.9761 21.8691 32.9737 27.2995Z" fill="#76C48A"/>
<path d="M32.9736 27.2994C31.8748 30.2774 30.2131 32.8667 28.0339 34.9947C25.5534 37.4169 22.3054 39.3415 18.3799 40.7145C18.2511 40.7594 18.1167 40.7962 17.9816 40.8233C17.8032 40.8586 17.6217 40.8776 17.4418 40.8801V0.000244141C18.0655 0.00835332 18.6868 0.240088 19.1843 0.695761L19.2108 0.720712C22.3182 3.74886 25.9542 5.2818 30.6544 5.54411C32.9087 5.6698 34.7009 7.53459 34.7342 9.78863C34.7408 10.2509 34.7526 10.666 34.771 11.0593L34.772 11.0905C34.863 15.8926 34.9759 21.8691 32.9736 27.2994Z" fill="#06942A"/>
<path d="M27.5942 20.4399C27.5942 26.0455 23.0427 30.6085 17.4418 30.6285H17.4059C11.7885 30.6285 7.21739 26.0577 7.21739 20.4399C7.21739 14.8225 11.7885 10.2517 17.4059 10.2517H17.4418C23.0427 10.2717 27.5942 14.8346 27.5942 20.4399Z" fill="white"/>
<path d="M27.5941 20.4399C27.5941 26.0455 23.0427 30.6085 17.4418 30.6285V10.2517C23.0427 10.2717 27.5941 14.8346 27.5941 20.4399Z" fill="#E1EBF0"/>
<path d="M22.0304 18.9729L17.4418 23.5621L16.4503 24.5536C16.2161 24.7878 15.9089 24.9048 15.602 24.9048C15.2948 24.9048 14.9879 24.7878 14.7533 24.5536L12.6216 22.4209C12.1531 21.9524 12.1531 21.1936 12.6216 20.7248C13.0894 20.2564 13.8492 20.2564 14.3176 20.7248L15.602 22.0092L20.3343 17.2769C20.8028 16.8081 21.5625 16.8081 22.0304 17.2769C22.4988 17.7453 22.4988 18.5051 22.0304 18.9729Z" fill="#596C76"/>
<path d="M22.0303 18.9729L17.4418 23.5621V20.169L20.3342 17.2769C20.8027 16.8081 21.5625 16.8081 22.0303 17.2769C22.4988 17.7453 22.4988 18.5051 22.0303 18.9729Z" fill="#465A61"/>
</svg>
